<?xml version="1.0" encoding="utf-8"?>
<!-- Generator: Adobe Illustrator 15.1.0, SVG Export Plug-In . SVG Version: 6.00 Build 0)  -->
<!DOCTYPE svg PUBLIC "-//W3C//DTD SVG 1.1//EN" "http://www.w3.org/Graphics/SVG/1.1/DTD/svg11.dtd">
<svg version="1.1" id="Warstwa_1" xmlns="http://www.w3.org/2000/svg" xmlns:xlink="http://www.w3.org/1999/xlink" x="0px" y="0px"
	 width="841.89px" height="595.28px" viewBox="0 0 841.89 595.28" enable-background="new 0 0 841.89 595.28" xml:space="preserve">
<g>
	<polygon fill-rule="evenodd" clip-rule="evenodd" fill="#C8C8C8" points="391.43,305.031 391.42,305.029 357.948,285.701 
		324.479,305.031 357.948,324.354 	"/>
	<polygon fill-rule="evenodd" clip-rule="evenodd" fill="#3C3C3C" points="324.479,305.031 324.479,343.682 357.96,363.006 
		391.43,343.682 391.43,305.031 357.954,324.359 	"/>
	<polygon fill-rule="evenodd" clip-rule="evenodd" fill="#C8C8C8" points="484.028,305.031 484.022,305.029 450.553,285.701 
		417.084,305.031 450.553,324.354 	"/>
	<polygon fill-rule="evenodd" clip-rule="evenodd" fill="#3C3C3C" points="417.084,305.031 417.084,343.682 450.568,363.006 
		484.028,343.682 484.028,305.031 450.561,324.359 	"/>
	<g>
		<polygon fill="#FFD264" points="483.961,212.975 500.691,222.648 483.973,232.305 483.961,232.303 483.955,232.305 
			467.225,222.648 		"/>
		<polygon fill="#F37021" points="467.225,261.293 467.227,261.287 483.961,270.949 		"/>
		<polygon fill="#F37021" points="467.225,280.615 450.482,270.955 450.482,270.941 450.482,251.633 467.225,261.293 		"/>
		<polygon fill="#D23200" points="483.955,232.305 467.225,241.96 467.225,261.287 467.227,261.287 467.225,261.293 
			450.482,251.633 450.482,232.305 467.225,222.648 		"/>
		<polygon fill="#F37021" points="500.691,261.293 500.691,261.287 517.432,251.633 517.432,270.949 517.432,270.955 
			502.237,279.723 500.691,280.615 		"/>
		<polygon fill="#F37021" points="500.691,261.287 483.961,270.949 467.227,261.287 467.225,261.287 467.225,241.96 
			483.955,232.305 483.961,232.303 483.973,232.305 500.691,241.96 		"/>
		<polygon fill="#D23200" points="500.691,222.648 517.432,232.305 517.432,251.633 500.691,261.287 500.691,241.96 
			483.973,232.305 		"/>
		<polygon fill="#FFD264" points="483.961,270.949 500.691,261.293 500.691,280.615 483.961,290.271 467.225,280.615 
			467.225,261.293 		"/>
	</g>
	<polygon fill-rule="evenodd" clip-rule="evenodd" fill="#3C3C3C" points="370.764,224.88 370.764,263.529 404.246,282.852 
		437.719,263.529 437.717,224.88 404.246,244.207 	"/>
	<polygon fill-rule="evenodd" clip-rule="evenodd" fill="#C8C8C8" points="391.406,251.625 391.398,251.623 357.928,232.295 
		324.457,251.625 357.928,270.949 	"/>
	<polygon fill-rule="evenodd" clip-rule="evenodd" fill="#C8C8C8" points="437.719,224.88 437.717,224.873 404.246,205.552 
		370.764,224.88 404.237,244.207 	"/>
	<polygon fill-rule="evenodd" clip-rule="evenodd" fill="#3C3C3C" points="370.764,331.749 370.764,370.402 404.246,389.729 
		437.719,370.402 437.717,331.749 404.246,351.076 	"/>
	<polygon fill-rule="evenodd" clip-rule="evenodd" fill="#C8C8C8" points="437.719,331.749 437.717,331.745 404.246,312.424 
		370.764,331.749 404.237,351.076 	"/>
	<polygon fill-rule="evenodd" clip-rule="evenodd" fill="#3C3C3C" points="324.457,251.625 324.457,290.276 357.938,309.601 
		391.406,290.276 391.406,251.625 357.933,270.955 	"/>
	<polygon fill-rule="evenodd" clip-rule="evenodd" fill="#3C3C3C" points="370.764,278.354 370.764,317.004 404.246,336.33 
		437.719,317.004 437.717,278.354 404.246,297.678 	"/>
	<polygon fill-rule="evenodd" clip-rule="evenodd" fill="#C8C8C8" points="437.719,278.354 437.717,278.344 404.246,259.026 
		370.764,278.354 404.237,297.678 	"/>
</g>
</svg>
